# xmcd
#
# Track frame offsets:
#	150
#	20530
#	39784
#	63475
#	82028
#	103081
#	121722
#	142622
#	165672
#	189332
#
# Disc length: 2837 seconds
# Revision: 0
# Processed by: cddbd v1.5.2PL0 Copyright (c) Steve Scherf et al.
# Submitted via: dBpowerAMP V12.0
#
DISCID=730b130a
DTITLE=Laretha Weathersby - Dance The Blues Away
DYEAR=2012
DGENRE=Blues
TTITLE0=Same Thing To You
TTITLE1=Where Is That No Good Man
TTITLE2=Princess Of The Blues
TTITLE3=Mr. Right
TTITLE4=Dance The Blues Away
TTITLE5=Tell Me What's On Your Mind
TTITLE6=I'm Gone
TTITLE7=Find Me Another Man
TTITLE8=More Than Just A Lover
TTITLE9=Good Loving Man
EXTD=
EXTT0=
EXTT1=
EXTT2=
EXTT3=
EXTT4=
EXTT5=
EXTT6=
EXTT7=
EXTT8=
EXTT9=
PLAYORDER=
